<?xml version="1.0" encoding="utf-8"?>
<!-- Generator: Adobe Illustrator 24.1.1, SVG Export Plug-In . SVG Version: 6.00 Build 0)  -->
<!DOCTYPE svg PUBLIC "-//W3C//DTD SVG 1.1//EN" "http://www.w3.org/Graphics/SVG/1.1/DTD/svg11.dtd" [
	<!ENTITY ns_extend "http://ns.adobe.com/Extensibility/1.0/">
	<!ENTITY ns_ai "http://ns.adobe.com/AdobeIllustrator/10.0/">
	<!ENTITY ns_graphs "http://ns.adobe.com/Graphs/1.0/">
	<!ENTITY ns_vars "http://ns.adobe.com/Variables/1.0/">
	<!ENTITY ns_imrep "http://ns.adobe.com/ImageReplacement/1.0/">
	<!ENTITY ns_sfw "http://ns.adobe.com/SaveForWeb/1.0/">
	<!ENTITY ns_custom "http://ns.adobe.com/GenericCustomNamespace/1.0/">
	<!ENTITY ns_adobe_xpath "http://ns.adobe.com/XPath/1.0/">
]>
<svg version="1.1" xmlns:x="&ns_extend;" xmlns:i="&ns_ai;" xmlns:graph="&ns_graphs;"
	 xmlns="http://www.w3.org/2000/svg" xmlns:xlink="http://www.w3.org/1999/xlink" x="0px" y="0px" viewBox="0 0 1190.6 841.9"
	 style="enable-background:new 0 0 1190.6 841.9;" xml:space="preserve">
<style type="text/css">
	.st0{fill:#FFFEFE;}
</style>
<metadata>
	<sfw  xmlns="&ns_sfw;">
		<slices></slices>
		<sliceSourceBounds  bottomLeftOrigin="true" height="602.7" width="1007" x="456.6" y="276"></sliceSourceBounds>
	</sfw>
</metadata>
<g id="Calque_8_xA0_Image_1_">
	
		<image style="overflow:visible;" width="4196" height="1533" id="Calque_8_xA0_Image" xlink:href="B9928813.png"  transform="matrix(0.24 0 0 0.24 91.92 296.4)">
	</image>
</g>
<g id="Deliver">
	<g>
		<path class="st0" d="M393.6,549.5v1.4c-2.2,0-3.4,0.1-3.6,0.2v4.4h-1.2v-6.1H393.6z M390,566.9v5.4h-1.2v-5.4H390z M390,583.7v5.4
			h-1.2v-5.4H390z M390,600.4v5.4h-1.2v-5.4H390z M390,617.1v5.4h-1.2v-5.4H390z M390,633.9v5.4h-1.2v-5.4H390z M393.2,645.5
			l0.1-1.6c-2.2,0.2-3.8,0.2-4.6-0.1v1.7H393.2z M407.6,549.5v1.2h-5.4v-1.2H407.6z M408.8,644.3v1.2h-5.4v-1.2H408.8z M423.9,553.6
			c0,0.3-0.2,0.6-0.5,1c-1-0.5-2.7-1.1-4.9-1.9c0-0.1,0-0.2,0.1-0.5c0.1-0.2,0.1-0.4,0.1-0.6c0.1,0,0.2,0,0.2,0
			c0.1-0.1,0.2-0.1,0.4-0.1C419.5,551.4,421.1,552.2,423.9,553.6z M425.3,641.3c-1.3,1.4-2.8,2.2-4.7,2.4c-0.3-0.2-0.5-0.5-0.5-0.7
			c0-0.2,0.9-0.8,2.6-1.7l2.3-1.2L425.3,641.3z M434.6,566.6c0,0.1-0.1,0.1-0.2,0.2c-0.2,0-0.2,0.1-0.2,0.3h-0.4
			c0-0.2-1-1.6-2.9-4.1c0.4-0.5,0.8-0.8,1.2-1C433.8,564.7,434.6,566.2,434.6,566.6z M433.2,632.7h-0.7c-0.3-0.3-0.5-0.6-0.5-0.7
			c0-0.2,0.3-0.9,0.8-2c0.6-1.1,0.9-1.9,1-2.4c0.3,0,0.8,0.1,1.4,0.2C434.8,628.9,434.1,630.5,433.2,632.7z M438.7,583.1l-1.2,0.2
			l-1-4.9c0.2-0.2,0.6-0.4,1.2-0.4C437.9,579.1,438.2,580.8,438.7,583.1z M438.8,611.6c-0.2,1.2-0.5,3-1,5.3
			c-0.8-0.4-1.2-0.6-1.2-0.7c0-0.5,0.3-2.1,1-4.8c0.1,0,0.3,0,0.5,0.1C438.4,611.5,438.7,611.6,438.8,611.6z M439.2,594.6v5.4H438
			v-5.4H439.2z"/>
		<path class="st0" d="M457.1,612.9c0.2,0,0.3,0.1,0.5,0.4h4.4v1.2h-4.7c0-0.2,0,1.1,0,3.7h-1.1v-5.3H457.1z M460.5,597.3
			c-1,2.2-1.7,3.8-1.9,4.9c-0.1,0-0.2,0-0.5-0.1c-0.2,0-0.4,0-0.6,0v-0.7c0.8-2.5,1.5-4,2.2-4.4C460,597.2,460.3,597.3,460.5,597.3z
			 M461.4,632.9c0,0.3-0.3,0.6-0.8,1c-0.6-1-1.5-2.5-2.6-4.6l0.2-0.1c0-0.1,0.2-0.1,0.7-0.1C458.9,629.1,459.8,630.4,461.4,632.9z
			 M471.8,586.4c-0.9,0.6-2.4,1.5-4.6,2.6c-0.1-0.1-0.3-0.2-0.7-0.5c1.3-1.4,2.9-2.3,4.8-2.8L471.8,586.4z M472.9,644
			c0,0.5-0.1,0.7-0.4,0.7c-1,0-2.6-0.8-4.8-2.4c0.5-0.4,0.8-0.6,1.1-0.6C469.6,642.1,471,642.8,472.9,644z M474.8,613.2v1.2h-5.3
			v-1.2H474.8z M487.4,644.9c-1.1,0.2-2.8,0.4-5.2,0.7c0-0.5,0-0.9-0.1-1.2c0.7-0.1,2.4-0.3,4.9-0.7
			C487.3,644,487.4,644.4,487.4,644.9z M487.3,585.6c0,0.3,0.1,0.6,0.2,0.7c-0.2,0.2-0.4,0.5-0.4,0.7c-1.1-0.3-2.8-0.8-4.9-1.6V585
			c0.1-0.2,0.1-0.4,0.1-0.6C484.5,584.9,486.2,585.3,487.3,585.6z M491,613.2v1.2h-5.2v-1.2H491z M498,638.2l-4.1,2.8
			c-0.4-0.2-0.8-0.3-1.2-0.2c1.4-1.7,2.9-2.8,4.6-3.2C497.6,637.4,497.8,637.6,498,638.2z M497.6,598.8c-0.4,0-0.8,0.1-1.1,0.2
			c-0.4-1.4-1.1-2.9-2.2-4.3c0.5-0.5,0.9-0.7,1.2-0.6C496.2,595.1,496.9,596.7,497.6,598.8z M499.2,609.8v4.7h-1.9v-1.2
			c0.2,0,0.5-0.1,0.7-0.2v-2.8l0.4-0.5H499.2z"/>
		<path class="st0" d="M520.8,549.5v5.5h-1.3v-5.5H520.8z M520.8,563.3v5.5h-1.3v-5.5H520.8z M520.8,577.6v5.5h-1.3v-5.5H520.8z
			 M520.8,594.2v5.5h-1.3v-5.5H520.8z M520.8,611v5.5h-1.3V611H520.8z M520.8,627.2v5.5h-1.3v-5.5H520.8z M520.8,642.4v3.1h-1.3
			v-3.1H520.8z"/>
		<path class="st0" d="M549.2,577.4c-0.4,0-1.1,0-2.2,0V573c0.5,0.1,1.2,0.1,2.2,0V577.4z M548.5,590.6v4.4h-1v-4.4H548.5z
			 M548.5,602.3v4.4h-1v-4.4H548.5z M548.5,615.9v4.4h-1v-4.4H548.5z M548.5,629.4v4.3h-1v-4.3H548.5z M548.5,641.7v4.4h-1v-4.4
			H548.5z"/>
		<path class="st0" d="M574.3,588.9c-0.5,0-0.8,0.1-1,0.4c-0.1-0.2-0.6-1.7-1.7-4.3c0.2-0.2,0.5-0.4,1.1-0.4
			C573.1,585.4,573.6,586.9,574.3,588.9z M578.9,603.2c-0.4,0-0.8,0.1-1.1,0.2l-1.4-4.4c0.2-0.2,0.5-0.2,1.1-0.2L578.9,603.2z
			 M583.5,617.3c-0.4,0-0.8,0.1-1.1,0.2l-1.4-4.4c0.2-0.2,0.5-0.2,1.1-0.2L583.5,617.3z M588.2,631.5c-0.4,0-0.7,0.1-0.8,0.2
			c-0.2-0.2-0.7-1.7-1.7-4.3c0.2-0.2,0.5-0.2,1-0.2C587.1,628,587.6,629.5,588.2,631.5z M592.9,645.5h-1.1c-0.8-2.1-1.7-4.6-2.8-7.6
			c0.2-0.1,0.6-0.2,1.1-0.5c0.6,1.8,1.3,3.7,2.2,5.9c1-1.8,1.8-3.9,2.2-6.2c0.3,0,0.8,0.1,1.3,0.2L592.9,645.5z M597.3,631.6
			c-0.2-0.2-0.6-0.4-1-0.6l1.4-4.3c0.3,0,0.7,0,1.2,0.1C598.7,627.8,598.1,629.4,597.3,631.6z M602,617.2c-0.1,0-0.2,0-0.4-0.1
			c-0.2,0-0.4,0-0.5,0c0-0.2,0-0.3-0.1-0.4v-0.2c0,0.8,0.4-0.5,1.2-4c0.3,0,0.8,0.1,1.3,0.2L602,617.2z M606.7,603
			c-0.1,0-0.2,0-0.4,0c-0.2-0.1-0.4-0.1-0.4-0.2c0,0-0.1-0.1-0.2-0.2c0-0.1,0-0.2,0-0.4c0,0.8,0.4-0.5,1.2-4c0.3,0,0.8,0.1,1.3,0.2
			L606.7,603z M611.1,589.1c-0.2-0.2-0.6-0.4-1-0.6l1.4-4.4c0.3,0,0.7,0.1,1.2,0.2C612.5,585.4,611.9,587,611.1,589.1z"/>
		<path class="st0" d="M632.1,612.9c0.2,0,0.3,0.1,0.5,0.4h4.4v1.2h-4.7c0-0.2,0,1.1,0,3.7h-1.1v-5.3H632.1z M635.6,597.3
			c-1,2.2-1.7,3.8-1.9,4.9c-0.1,0-0.2,0-0.5-0.1c-0.2,0-0.4,0-0.6,0v-0.7c0.8-2.5,1.5-4,2.2-4.4
			C635.1,597.2,635.4,597.3,635.6,597.3z M636.5,632.9c0,0.3-0.3,0.6-0.8,1c-0.6-1-1.5-2.5-2.6-4.6l0.2-0.1c0-0.1,0.2-0.1,0.7-0.1
			C634,629.1,634.9,630.4,636.5,632.9z M646.9,586.4c-0.9,0.6-2.4,1.5-4.6,2.6c-0.1-0.1-0.3-0.2-0.7-0.5c1.3-1.4,2.9-2.3,4.8-2.8
			L646.9,586.4z M648,644c0,0.5-0.1,0.7-0.4,0.7c-1,0-2.6-0.8-4.8-2.4c0.5-0.4,0.8-0.6,1.1-0.6C644.7,642.1,646.1,642.8,648,644z
			 M649.9,613.2v1.2h-5.3v-1.2H649.9z M662.5,644.9c-1.1,0.2-2.8,0.4-5.2,0.7c0-0.5,0-0.9-0.1-1.2c0.7-0.1,2.4-0.3,4.9-0.7
			C662.4,644,662.5,644.4,662.5,644.9z M662.4,585.6c0,0.3,0.1,0.6,0.2,0.7c-0.2,0.2-0.4,0.5-0.4,0.7c-1.1-0.3-2.8-0.8-4.9-1.6V585
			c0.1-0.2,0.1-0.4,0.1-0.6C659.6,584.9,661.3,585.3,662.4,585.6z M666.1,613.2v1.2h-5.2v-1.2H666.1z M673.1,638.2L669,641
			c-0.4-0.2-0.8-0.3-1.2-0.2c1.4-1.7,2.9-2.8,4.6-3.2C672.7,637.4,672.9,637.6,673.1,638.2z M672.7,598.8c-0.4,0-0.8,0.1-1.1,0.2
			c-0.4-1.4-1.1-2.9-2.2-4.3c0.5-0.5,0.9-0.7,1.2-0.6C671.3,595.1,672,596.7,672.7,598.8z M674.3,609.8v4.7h-1.9v-1.2
			c0.2,0,0.5-0.1,0.7-0.2v-2.8l0.4-0.5H674.3z"/>
		<path class="st0" d="M693.8,588.8c-0.2,0-0.4,0-0.6,0.1c-0.2,0-0.4,0-0.6,0c-0.3-0.9-0.7-1.7-1.2-2.5l1-1
			C692.6,585.8,693.1,586.9,693.8,588.8z M693.8,640.7v4.8h-1.2v-4.8H693.8z M693.8,624.9v5.2h-1.1v-5.2H693.8z M694.1,609v5.2h-1.2
			V609H694.1z M694.4,598.4h-1.1v-4.9c0.4,0,0.8-0.1,1.1-0.2C694.4,596.6,694.4,598.3,694.4,598.4z M699.1,591.3l-3.1,3.8
			c-0.5-0.4-0.7-0.7-0.7-0.8c0,0.2,1-1.1,3-3.8L699.1,591.3z M712.8,585.2c-1.1,0.2-2.8,0.4-5,0.7c0-0.4-0.1-0.7-0.2-1
			c1-0.2,2.7-0.4,5-0.7c0,0.1,0,0.2,0.1,0.4C712.7,584.8,712.8,585,712.8,585.2z M726.3,591.2c-0.2,0.2-0.6,0.4-1,0.7
			c-0.9-1.3-2-2.6-3.4-3.8l1-1C723.7,588,724.8,589.3,726.3,591.2z"/>
	</g>
</g>
<g id="y">
	<g>
		<path class="st0" d="M757.2,558.6l-1.8-4c0.2,0,0.5-0.1,0.7-0.4c0.5,0.8,1.1,2,1.9,3.7C757.9,558.1,757.6,558.3,757.2,558.6z
			 M763.1,570.1c-0.2,0.2-0.4,0.4-0.8,0.6c-0.6-1.4-1.2-2.8-1.6-4.2c0.1,0,0.2,0,0.5,0c0.2-0.1,0.3-0.1,0.5-0.1L763.1,570.1z
			 M764.6,650.3c-0.2-0.3-0.4-0.6-0.4-0.7l1.2-3.4h0.6c0,0.1,0,0.2,0.1,0.3c0.1,0.1,0.1,0.2,0.1,0.3c0,0.3-0.2,0.9-0.7,1.9
			C765.1,649.6,764.8,650.1,764.6,650.3z M767.4,582.7l-1.8-4.1c0.2,0,0.5-0.1,0.7-0.4c0.5,0.9,1.1,2.2,1.9,3.8
			C768.1,582.2,767.8,582.4,767.4,582.7z M769.3,637.9c-0.3-0.2-0.5-0.4-0.5-0.6l1.3-3.4h0.6c0,0.1,0,0.2,0.1,0.2c0,0.2,0,0.3,0,0.4
			c0,0.3-0.2,0.9-0.7,1.8C769.8,637.2,769.5,637.7,769.3,637.9z M773.3,594.2c-0.2,0.1-0.4,0.3-0.8,0.6c-0.6-1.4-1.2-2.8-1.6-4.2
			c0.1,0,0.2,0,0.5,0c0.2-0.1,0.3-0.1,0.5-0.1L773.3,594.2z M774.1,625.7c-0.5-0.2-0.7-0.4-0.7-0.6l1.3-3.4h0.7c0-0.1,0,0.1,0.1,0.6
			L774.1,625.7z M777.7,606.8l-1.8-4.1c0.2,0,0.4-0.1,0.6-0.4c0.5,0.9,1.1,2.2,1.9,3.8c-0.1,0.1-0.2,0.2-0.4,0.3
			C777.9,606.6,777.8,606.7,777.7,606.8z M778.4,613.4c-0.3-0.2-0.5-0.4-0.5-0.6c0-0.2,0.2-0.6,0.5-1.4c0.3-0.8,0.5-1.2,0.5-1.3
			l-0.5-1.4c0.2,0,0.3,0,0.5,0c0.2-0.1,0.3-0.1,0.4-0.1c0.5,1.4,0.7,2,0.7,1.6C780,611.3,779.5,612.4,778.4,613.4z M780.7,607.4
			c-0.3-0.2-0.5-0.4-0.5-0.6l1.3-3.4h0.6c0,0.1,0,0.2,0.1,0.2c0,0.2,0,0.3,0,0.4c0,0.3-0.2,0.9-0.7,1.8
			C781.2,606.7,780.9,607.3,780.7,607.4z M785.3,595.2c-0.2-0.2-0.4-0.4-0.4-0.6l1.3-3.4h0.6c0,0.1,0,0.2,0.1,0.2c0,0.1,0,0.2,0,0.4
			c0,0.2-0.2,0.8-0.7,1.7C785.9,594.5,785.5,595,785.3,595.2z M790.2,582.9c-0.5-0.2-0.7-0.4-0.7-0.7l1.3-3.2h0.7
			c0-0.1,0,0.1,0.1,0.6L790.2,582.9z M794.4,570.7c-0.2-0.2-0.4-0.5-0.4-0.7c0,0.1,0.4-1,1.3-3.2h0.6c0,0.1,0,0.2,0.1,0.2
			c0,0.1,0,0.2,0,0.4c0,0.2-0.2,0.8-0.7,1.7C795,570,794.6,570.5,794.4,570.7z M799.1,558.5c-0.2-0.3-0.4-0.6-0.4-0.7
			c0,0.1,0.4-1,1.2-3.4h0.7c0,0.1,0,0.2,0,0.4c0.1,0.1,0.1,0.2,0.1,0.4c0,0.2-0.2,0.8-0.7,1.7C799.6,557.8,799.2,558.3,799.1,558.5z
			"/>
	</g>
</g>
<g id="Calque_2_xA0_Image_1_">
	
		<image style="overflow:visible;" width="1030" height="1476" id="Calque_2_xA0_Image" xlink:href="B9928811.png"  transform="matrix(0.24 0 0 0.24 276.24 85.68)">
	</image>
</g>
<g id="Calque_7_xA0_Image_1_">
	
		<image style="overflow:visible;" width="1481" height="1493" id="Calque_7_xA0_Image" xlink:href="B9928817.png"  transform="matrix(0.24 0 0 0.24 508.8 82.32)">
	</image>
</g>
</svg>
